/* XPM */
static char *d099c12ba0874b73b522ba92d8dbae81QYHWYbno2PpH0Feq[] = {
/* columns rows colors chars-per-pixel */
"16 16 2 1 ",
"  c #E8CFA6",
". c #EDDAB5",
/* pixels */
"                ",
"                ",
"                ",
"        ....    ",
"       ......   ",
"        ....    ",
"   ..           ",
"  ....          ",
"   ..           ",
"                ",
"           ..   ",
"          ....  ",
"           ..   ",
"                ",
"                ",
"                "
};
