/* XPM */
static char *_ffc6057e8034750ccb7eeebe96b4c2fDgq22PR5qpeMdxSV[] = {
/* columns rows colors chars-per-pixel */
"16 16 2 1 ",
"  c #B1E0BE",
". c #9BD4C3",
/* pixels */
".............   ",
"................",
".......   ......",
"................",
"................",
"   ............ ",
"................",
"................",
".........    ...",
"................",
"....  ..........",
"................",
".............   ",
".......   ......",
"................",
"................"
};
